<svg id="Layer_1" data-name="Layer 1" xmlns="http://www.w3.org/2000/svg" xmlns:xlink="http://www.w3.org/1999/xlink" viewBox="0 0 450 450"><defs><style>.cls-1{fill:#bfbeed;}.cls-2{fill:#f4f4fa;}.cls-3{fill:#3a2c99;}.cls-4{fill:#ffb700;}.cls-5{fill:#ffde38;}.cls-6{isolation:isolate;}.cls-7{clip-path:url(#clip-path);}.cls-8{clip-path:url(#clip-path-2);}.cls-9{fill:#231869;}.cls-10{fill:#f9d5c3;}.cls-11{fill:#6e4cb3;}.cls-12{fill:#dadaf9;}.cls-13{clip-path:url(#clip-path-3);}.cls-14{fill:#7f89a6;}.cls-15{fill:#ffbfa2;}.cls-16{fill:#d3d3f5;}.cls-17{fill:#302534;}.cls-18{fill:#e3e2f2;}.cls-19{fill:#19121b;}.cls-20{fill:#3e3544;}.cls-21{opacity:0.2;}.cls-22{clip-path:url(#clip-path-4);}.cls-23{fill:#fe8786;}.cls-24{clip-path:url(#clip-path-5);}.cls-25{fill:#ff6661;}.cls-26{clip-path:url(#clip-path-6);}.cls-27{fill:#f3f2fc;}.cls-28{fill:#fe4340;}.cls-29{fill:#fff;}.cls-30{fill:#f22b38;}.cls-31{clip-path:url(#clip-path-7);}.cls-32{clip-path:url(#clip-path-8);}.cls-33{clip-path:url(#clip-path-9);}.cls-34{fill:#ffc400;}.cls-35{fill:#262028;}</style><clipPath id="clip-path"><path class="cls-1" d="M84.79,376.76l9.91,5.76c-2.09-1.21-3.39-3.79-3.4-7.46l-9.91-5.76C81.4,373,82.7,375.55,84.79,376.76Z"/></clipPath><clipPath id="clip-path-2"><path class="cls-2" d="M222.9,10.59,213,4.83c-2.12-1.23-5.05-1.05-8.28.81l9.91,5.76C217.85,9.54,220.78,9.36,222.9,10.59Z"/></clipPath><clipPath id="clip-path-3"><path class="cls-3" d="M293.55,268l4.81,2.79A1.34,1.34,0,0,0,297,271l-4.81-2.8A1.31,1.31,0,0,1,293.55,268Z"/></clipPath><clipPath id="clip-path-4"><path class="cls-2" d="M317.84,27.13l2.89,1.68c-2.06-1.2-4.91-1-8.06.79l-2.89-1.68C312.93,26.1,315.78,25.93,317.84,27.13Z"/></clipPath><clipPath id="clip-path-5"><path class="cls-1" d="M142,283l-2.89-1.68c-2-1.18-3.29-3.69-3.3-7.26l2.89,1.68C138.7,279.29,140,281.8,142,283Z"/></clipPath><clipPath id="clip-path-6"><path class="cls-2" d="M138.31,143.3l-2.89-1.68c0-7.19,5-15.94,11.3-19.56l2.89,1.68C143.35,127.35,138.29,136.11,138.31,143.3Z"/></clipPath><clipPath id="clip-path-7"><path class="cls-4" d="M87.46,428.8l28.84,16.72c-3.48-2-5.64-6.3-5.66-12.38L81.79,416.42C81.81,422.5,84,426.78,87.46,428.8Z"/></clipPath><clipPath id="clip-path-8"><path class="cls-5" d="M209.29,284.77l-28.84-16.72c-3.53-2.05-8.4-1.77-13.76,1.32l28.85,16.72C200.89,283,205.77,282.72,209.29,284.77Z"/></clipPath><clipPath id="clip-path-9"><path class="cls-5" d="M129.73,324.09l-28.85-16.72c-10.65,6.15-19.33,21.19-19.3,33.43l28.84,16.72C110.39,345.28,119.08,330.23,129.73,324.09Z"/></clipPath></defs><path class="cls-2" d="M89.33,72.67l4.35,2.53-4.35-2.53A18.39,18.39,0,0,1,92.2,70.6l112.51-65,9.91,5.76-112.51,65a18.39,18.39,0,0,0-2.87,2.07,25.62,25.62,0,0,0-5,6l-9.91-5.76A25.62,25.62,0,0,1,89.33,72.67Z"/><path class="cls-2" d="M102.11,76.36,92.2,70.6c-6.42,3.71-11.62,12.71-11.6,20.09l9.91,5.76C90.49,89.06,95.68,80.07,102.11,76.36Z"/><g class="cls-6"><g class="cls-6"><g class="cls-6"><path class="cls-1" d="M217.74,313.62l-2.26,3.14c6.43-3.71,11.63-12.71,11.6-20.1l-1.6,3.56A17.08,17.08,0,0,1,217.74,313.62Z"/></g></g><polygon class="cls-1" points="105.24 378.57 102.98 381.71 215.48 316.76 217.74 313.62 105.24 378.57"/><g class="cls-6"><g class="cls-6"><path class="cls-2" d="M97.57,375.62l-6.09,1.66a7.32,7.32,0,0,0,2.9,5L99.5,379A4.9,4.9,0,0,1,97.57,375.62Z"/><path class="cls-1" d="M99.5,379l-5.12,3.34c2.13,1.45,5.2,1.36,8.6-.61l2.26-3.14C103,379.88,100.93,379.94,99.5,379Z"/></g></g><g class="cls-6"><path class="cls-1" d="M84.79,376.76l9.91,5.76c-2.09-1.21-3.39-3.79-3.4-7.46l-9.91-5.76C81.4,373,82.7,375.55,84.79,376.76Z"/><g class="cls-7"><g class="cls-6"><path class="cls-1" d="M91.3,375.06l-9.91-5.76c0,3.67,1.31,6.25,3.4,7.46l9.91,5.76C92.61,381.31,91.31,378.73,91.3,375.06Z"/></g></g></g><polygon class="cls-1" points="225.48 300.22 227.08 296.66 226.29 18.06 224.69 21.62 225.48 300.22"/><g class="cls-6"><g class="cls-6"><path class="cls-1" d="M224.69,21.62l1.6-3.56a12.35,12.35,0,0,0-.38-3.17l-1.48,4.62A8.07,8.07,0,0,1,224.69,21.62Z"/><path class="cls-2" d="M224.43,19.51l1.48-4.62a6.59,6.59,0,0,0-3.36-4.48l-.36,6.11A4.38,4.38,0,0,1,224.43,19.51Z"/><path class="cls-2" d="M222.19,16.52l.36-6.11a7.07,7.07,0,0,0-5.28-.19l1.4,6.17A4.73,4.73,0,0,1,222.19,16.52Z"/><path class="cls-2" d="M218.67,16.39l-1.4-6.17a13.5,13.5,0,0,0-2.65,1.18l2.28,5.78A9,9,0,0,1,218.67,16.39Z"/></g></g><g class="cls-6"><path class="cls-2" d="M222.9,10.59,213,4.83c-2.12-1.23-5.05-1.05-8.28.81l9.91,5.76C217.85,9.54,220.78,9.36,222.9,10.59Z"/><g class="cls-8"><g class="cls-6"><path class="cls-2" d="M222.9,10.59,213,4.83a6.56,6.56,0,0,0-4.63-.62l9.9,5.76A6.57,6.57,0,0,1,222.9,10.59Z"/><path class="cls-2" d="M218.26,10l-9.9-5.76a12.19,12.19,0,0,0-3.65,1.43l9.91,5.76A12,12,0,0,1,218.26,10Z"/></g></g></g><path class="cls-2" d="M96.66,95.53l.79,278.61a9.75,9.75,0,0,0,.12,1.48l-6.09,1.66a14.06,14.06,0,0,1-.18-2.22L90.51,96.45Z"/><polygon class="cls-1" points="90.51 96.45 80.6 90.69 81.39 369.3 91.3 375.06 90.51 96.45"/><polygon class="cls-2" points="216.9 17.18 214.62 11.4 102.11 76.36 104.4 82.14 216.9 17.18"/><path class="cls-2" d="M104.4,82.14a17.05,17.05,0,0,0-7.74,13.39l.79,278.61c0,4.92,3.51,6.91,7.79,4.43l112.5-64.95a17.08,17.08,0,0,0,7.74-13.4l-.79-278.6c0-4.92-3.51-6.91-7.79-4.44Z"/><g class="cls-6"><g class="cls-6"><path class="cls-2" d="M104.4,82.14l-2.29-5.78c-5,2.9-9.31,9.06-10.92,15.14l5.93.73C98.19,88.18,101,84.07,104.4,82.14Z"/><path class="cls-2" d="M97.12,92.23l-5.93-.73a19.65,19.65,0,0,0-.68,5l6.15-.92A12.86,12.86,0,0,1,97.12,92.23Z"/></g></g><g class="cls-6"><g class="cls-6"><path class="cls-2" d="M94.24,84.45l-9.91-5.76A26.15,26.15,0,0,0,81,87.06l9.9,5.76A26.18,26.18,0,0,1,94.24,84.45Z"/><path class="cls-1" d="M90.88,92.82,81,87.06a18.28,18.28,0,0,0-.38,3.63l9.91,5.76A19,19,0,0,1,90.88,92.82Z"/></g></g></g><path class="cls-3" d="M97.2,365.51a6.75,6.75,0,0,0,.88,3.6c1.3,2.12,3.9,2.57,6.9.83,0,0,113.65-65.68,114.2-66.14,3.46-2.89,6-8,6-12.21l-.8-270c0-4.92-3.5-6.92-7.78-4.45l-112.5,65A17.25,17.25,0,0,0,96.92,92a14.63,14.63,0,0,0-.43,2.11C96.43,94.58,97.2,365.51,97.2,365.51Z"/><path class="cls-2" d="M137.15,79.12,185,51.51a15.47,15.47,0,0,0,6.3-8.2l5.16-15.21L125.69,69l5.16,9.26C132,80.32,134.47,80.67,137.15,79.12Z"/><g class="cls-6"><path class="cls-2" d="M142.43,67.56A11.51,11.51,0,0,1,137,76.47a4.34,4.34,0,0,1-2.15.61,2.06,2.06,0,0,1-1.42-.56,3.58,3.58,0,0,1-.84-2.71,11.52,11.52,0,0,1,5.44-8.9,4.34,4.34,0,0,1,2.15-.61,2.17,2.17,0,0,1,.86.18C142,64.9,142.47,66,142.43,67.56Z"/><path class="cls-1" d="M141.87,67.19a11.49,11.49,0,0,1-5.44,8.9,4.34,4.34,0,0,1-2.15.61,2.35,2.35,0,0,1-.86-.18,3.58,3.58,0,0,1-.84-2.71,11.52,11.52,0,0,1,5.44-8.9,4.34,4.34,0,0,1,2.15-.61,2.17,2.17,0,0,1,.86.18A3.56,3.56,0,0,1,141.87,67.19Z"/><path class="cls-3" d="M134.29,76.23a1.64,1.64,0,0,1-.6-.11,3.23,3.23,0,0,1-.64-2.3,11,11,0,0,1,5.2-8.5,3.94,3.94,0,0,1,1.91-.56,1.88,1.88,0,0,1,.6.12,3.22,3.22,0,0,1,.64,2.29,11,11,0,0,1-5.2,8.51A3.82,3.82,0,0,1,134.29,76.23Z"/><path class="cls-3" d="M137.94,66.87a1.38,1.38,0,0,1-.65,1.06c-.35.19-.62,0-.61-.38a1.38,1.38,0,0,1,.65-1.06C137.67,66.31,138,66.47,137.94,66.87Z"/><path class="cls-3" d="M136.41,67.78a1.07,1.07,0,0,1-.26,1.11c-.3.36-.69.45-.85.2a1,1,0,0,1,.25-1.1C135.86,67.63,136.24,67.53,136.41,67.78Z"/><path class="cls-3" d="M135.1,69.43c.29,0,.38.41.2.85s-.57.76-.87.73-.38-.42-.2-.85S134.8,69.39,135.1,69.43Z"/><path class="cls-3" d="M134.36,71.36c.34-.19.62,0,.61.37a1.38,1.38,0,0,1-.65,1.06c-.35.19-.62,0-.61-.38A1.35,1.35,0,0,1,134.36,71.36Z"/><path class="cls-3" d="M134.38,73.06c.31-.37.69-.46.86-.21A1,1,0,0,1,135,74c-.3.37-.69.46-.85.21A1,1,0,0,1,134.38,73.06Z"/><path class="cls-3" d="M135.17,74.07c.19-.44.57-.76.87-.73s.39.42.21.85-.57.77-.87.73S135,74.51,135.17,74.07Z"/><path class="cls-3" d="M136.51,74.13a1.36,1.36,0,0,1,.65-1.06c.35-.19.62,0,.61.37a1.38,1.38,0,0,1-.64,1.06C136.78,74.69,136.5,74.53,136.51,74.13Z"/><path class="cls-3" d="M138,73.22a1.07,1.07,0,0,1,.26-1.11c.31-.36.69-.45.85-.2a1,1,0,0,1-.25,1.1C138.59,73.37,138.21,73.46,138,73.22Z"/><path class="cls-3" d="M139.36,71.57c-.3,0-.39-.41-.21-.85s.57-.76.87-.73.38.42.2.85S139.65,71.61,139.36,71.57Z"/><path class="cls-3" d="M140.1,69.64c-.35.19-.63,0-.61-.37a1.33,1.33,0,0,1,.64-1.06c.35-.19.62,0,.61.37A1.38,1.38,0,0,1,140.1,69.64Z"/><path class="cls-3" d="M140.07,67.94c-.31.36-.69.46-.86.21a1.07,1.07,0,0,1,.26-1.11c.31-.36.69-.45.85-.2A1,1,0,0,1,140.07,67.94Z"/><path class="cls-3" d="M139.28,66.93c-.19.43-.57.76-.87.73s-.39-.42-.2-.86.57-.76.86-.73S139.46,66.49,139.28,66.93Z"/><path class="cls-3" d="M138.7,69.7a3.21,3.21,0,0,1-1.52,2.48c-.81.44-1.45,0-1.43-.88a3.22,3.22,0,0,1,1.52-2.48C138.08,68.38,138.72,68.77,138.7,69.7Z"/></g><g class="cls-6"><path class="cls-2" d="M158,58.49a11.49,11.49,0,0,1-5.44,8.9,4.34,4.34,0,0,1-2.15.61,2.06,2.06,0,0,1-1.42-.56,3.55,3.55,0,0,1-.84-2.7,11.49,11.49,0,0,1,5.44-8.91,4.34,4.34,0,0,1,2.15-.61,2.35,2.35,0,0,1,.86.18C157.57,55.82,158.08,56.91,158,58.49Z"/><path class="cls-1" d="M157.48,58.11A11.49,11.49,0,0,1,152,67a4.34,4.34,0,0,1-2.15.61,2.17,2.17,0,0,1-.86-.18,3.55,3.55,0,0,1-.84-2.7,11.49,11.49,0,0,1,5.44-8.91,4.34,4.34,0,0,1,2.15-.61,2.35,2.35,0,0,1,.86.18A3.56,3.56,0,0,1,157.48,58.11Z"/><path class="cls-3" d="M149.9,67.16a1.88,1.88,0,0,1-.6-.12,3.22,3.22,0,0,1-.64-2.29,11,11,0,0,1,5.2-8.51,3.82,3.82,0,0,1,1.91-.55,1.64,1.64,0,0,1,.6.11,3.23,3.23,0,0,1,.64,2.3,11,11,0,0,1-5.2,8.5A3.94,3.94,0,0,1,149.9,67.16Z"/><path class="cls-3" d="M153.55,57.79a1.36,1.36,0,0,1-.65,1.06c-.35.19-.62,0-.61-.38a1.36,1.36,0,0,1,.65-1C153.28,57.23,153.56,57.39,153.55,57.79Z"/><path class="cls-3" d="M152,58.7a1.07,1.07,0,0,1-.26,1.11c-.3.36-.69.45-.85.2a1,1,0,0,1,.25-1.1C151.47,58.55,151.85,58.46,152,58.7Z"/><path class="cls-3" d="M150.7,60.35c.3,0,.39.41.21.85s-.57.76-.87.73-.38-.42-.2-.85S150.41,60.31,150.7,60.35Z"/><path class="cls-3" d="M150,62.28c.35-.19.63,0,.62.37a1.36,1.36,0,0,1-.65,1.06c-.35.19-.62,0-.61-.37A1.38,1.38,0,0,1,150,62.28Z"/><path class="cls-3" d="M150,64c.31-.36.69-.46.86-.21a1,1,0,0,1-.26,1.1c-.3.37-.69.46-.85.21A1,1,0,0,1,150,64Z"/><path class="cls-3" d="M150.78,65c.19-.43.57-.76.87-.73s.39.42.21.86-.57.76-.87.73S150.6,65.43,150.78,65Z"/><path class="cls-3" d="M152.12,65.05a1.38,1.38,0,0,1,.65-1.06c.35-.19.62,0,.61.38a1.35,1.35,0,0,1-.65,1C152.39,65.61,152.11,65.45,152.12,65.05Z"/><path class="cls-3" d="M153.65,64.14a1.07,1.07,0,0,1,.26-1.11c.31-.36.69-.45.85-.2a1,1,0,0,1-.25,1.1C154.2,64.29,153.82,64.38,153.65,64.14Z"/><path class="cls-3" d="M155,62.5c-.3,0-.39-.42-.21-.86s.57-.76.87-.73.38.42.2.85S155.26,62.53,155,62.5Z"/><path class="cls-3" d="M155.71,60.56c-.35.19-.63,0-.62-.37a1.36,1.36,0,0,1,.65-1.06c.35-.19.62,0,.61.38A1.38,1.38,0,0,1,155.71,60.56Z"/><path class="cls-3" d="M155.68,58.86c-.31.37-.69.46-.86.21a1,1,0,0,1,.26-1.1c.3-.37.69-.46.85-.21A1,1,0,0,1,155.68,58.86Z"/><path class="cls-3" d="M154.89,57.85c-.19.44-.57.76-.87.73s-.39-.42-.21-.85.58-.77.87-.73S155.07,57.41,154.89,57.85Z"/><path class="cls-3" d="M154.31,60.62a3.21,3.21,0,0,1-1.52,2.48c-.81.44-1.45,0-1.43-.88a3.21,3.21,0,0,1,1.52-2.48C153.69,59.3,154.33,59.69,154.31,60.62Z"/></g><path class="cls-9" d="M165.78,55.89l5.93-3.43a4.47,4.47,0,0,0,2-3.49c0-1.28-.91-1.81-2-1.17l-5.93,3.43a4.47,4.47,0,0,0-2,3.49C163.76,56,164.67,56.53,165.78,55.89Z"/><g id="man"><path class="cls-10" d="M242.57,270.59a.81.81,0,0,1,.73,0,2.17,2.17,0,0,1,.61.43,57.58,57.58,0,0,1,5.23,5.37l-.13-.08c.22.25.43.5.63.77l.11.15a3.82,3.82,0,0,1,1.89.95,3.1,3.1,0,0,1,.63,1.27,20.35,20.35,0,0,1,.39,3.81,1.41,1.41,0,0,1-.8.85s-.06,0-.09-.07l0,.07a5.25,5.25,0,0,0-1.33,1.49c-.28.47-.82.37-1.37.53-2.07-2.53-4.68-3.87-6.21-6.7a1.7,1.7,0,0,1-.28-1.12.74.74,0,0,1,.91-.58.93.93,0,0,1,.21-1.1,1.14,1.14,0,0,1,1.19-.18.82.82,0,0,1,.45-.91,1.14,1.14,0,0,1,.52-.12,32.45,32.45,0,0,1-2.8-3.06c-.31-.39-.82-.89-.71-1.36A.58.58,0,0,1,242.57,270.59Z"/><g id="man-2" data-name="man"><path class="cls-1" d="M303.41,413.58c-.14-.44-.42-.68-1.24-.75s-1.92-.12-2.88-.18l-3.9-.25c.06-1.06.1-2.13.21-3.17-1.38.29-2.15-.11-3.47-.6q-2.34-.87-4.74-1.56a4.42,4.42,0,0,0-2.09-.25c-1.76.36-2.72,3.25-2.48,4.77a4.4,4.4,0,0,0,1.74,2.67,10.65,10.65,0,0,0,4.7,2.07,9.74,9.74,0,0,1,4.71,1.89c1.8,1.41,3.09,2.9,5.47,3.07a3.9,3.9,0,0,0,4.48-3.76,11.88,11.88,0,0,0-.28-2.65A9.58,9.58,0,0,0,303.41,413.58Z"/><path class="cls-1" d="M291.23,417.93c0-.19,0-.38,0-.57.13-1.95-.62-3.6-1.33-5.4a4.3,4.3,0,0,0-1.12-1.83c-1.29-1-3.33-.12-4.15,1.31-.38.66-.59,1.4-.93,2.09-.64,1.29-1.94,2.84-3.51,2.91-2.1.1-4.46-.63-6.59-.76a5.51,5.51,0,0,0-2.46.24c-1.82.73-2.34,3.66-1.7,5.3a4.4,4.4,0,0,0,2.3,2.21,10.67,10.67,0,0,0,5,1,9.8,9.8,0,0,1,5,.8c2.74,1.3,5.93,3.16,8.71.63a4.07,4.07,0,0,0,1.19-2.68C291.86,421.39,291.26,419.68,291.23,417.93Z"/></g><path class="cls-9" d="M299.21,337c-1.29,1.37-6.34-1-6.42-1.62-6.05-4.46-4.89,13.89-3,21.15,1,3.91.87,8,1.51,12a91.92,91.92,0,0,0,3.13,13.11,6.28,6.28,0,0,0,1.31,2.57c1.41,1.43,3.73,1.23,5.7.86,1.71-.32,3.61-.85,4.42-2.39a6.28,6.28,0,0,0,.42-3.14,41,41,0,0,1,.32-8.51q.78-4.46,1.58-8.91c.46-2.6.92-5.2,1.12-7.83a56.51,56.51,0,0,0-1-14.21c-.44-2.45.26-7.09-3.25-7.51C301.85,332.17,300.07,336.07,299.21,337Z"/><path class="cls-11" d="M292.69,378l-1-4.13C292.1,375.2,292.43,376.58,292.69,378Z"/><path class="cls-9" d="M295.09,380c1-1.43,3.5-1.42,4.35-1.07.67.28,5.42-2.6,6.81-3.7a6.75,6.75,0,0,0,.13,1.42c0,.49.09,1,.12,1.46.08,1,.15,1.93.21,2.9.11,1.89.22,3.78.22,5.67a144,144,0,0,1-2.75,27,4.05,4.05,0,0,1-.72,1.95c-.63.77-2.45,1.55-5.08,1.15a4.55,4.55,0,0,1-3.64-3,11.51,11.51,0,0,1-.3-4.46c.36-5.92.76-11.79.62-17.72a75.15,75.15,0,0,0-1.49-14.21Z"/><path class="cls-3" d="M278.68,350.26a129.07,129.07,0,0,0,.2,17.37c.28,3.49.71,7,1.27,10.4q.42,2.58,1,5.15a3.78,3.78,0,0,0,2,3.05c2.89,1.93,8.19,1.82,10.38-1.45,2.36-3.52,1.56-9.12,2.38-13.13,1.2-5.83,5.21-10,7.14-15.53a20.43,20.43,0,0,0,1.12-5.86Z"/><path class="cls-12" d="M310.18,322.78c.12-1,.28-2.06.46-3.08.86-4.91,2.33-9.7,2.95-14.65.48-3.85.82-8.64-2.23-11.62a8.32,8.32,0,0,0-1.67-1.22c-5.93-3.35-11.6.73-17.15,2.73a52,52,0,0,0-10.42,5.13,9.15,9.15,0,0,0-3.07,2.35,7.74,7.74,0,0,0-1.33,3.95,21.94,21.94,0,0,0,.49,4.91A101.16,101.16,0,0,1,279.37,340c-.5,4.1-1,15.32-1,15.32,1.36.59,2.23,1.15,8.86,1.27,13.67.25,21.24-3.2,22-3.92s.51-2.38.53-3.38c.09-3,0-5.95,0-8.92A119.71,119.71,0,0,1,310.18,322.78Z"/><path class="cls-3" d="M281.23,385.91c.18,3,.34,6,.47,9q.17,3.56.26,7.13c.05,1.83.08,3.66.1,5.49.09,10-1,12.26,3.66,13.68a6.42,6.42,0,0,0,3.25.2c3.1-.68,3.7-3.37,4.16-6.71.26-1.88.42-4.15.53-6.05q.13-2.42.24-4.83.14-3.27.25-6.54c.1-2.88.2-5.75.29-8.63.12-3.67.53-7.41.65-11.09a1.72,1.72,0,0,0-.72-1.39c-.55-.38-11.72,3.39-12.88,4.61A15.25,15.25,0,0,0,281.23,385.91Z"/><path class="cls-2" d="M280.52,297.7c-3.64-.54-12.33-2.19-14.24-3.35-5-3-10.26-9.14-12.47-12.1-.75-1-6.9,2.95-6.93,3.84s4.79,8.21,5.54,9.31c3.83,5.61,7.53,8.67,8.8,9.37,3.38,1.85,16.82,7.4,17.66,7.59,2.41.54,6.67-1.83,7.64-3.53C292.72,297.93,282,297.92,280.52,297.7Z"/><path class="cls-10" d="M291.05,290.11c-.21-1.47-1.32-1.13-.76-2.46a7.23,7.23,0,0,1,2.17-2.92,5.26,5.26,0,0,1,3.42-1.13c.43,0,.71.27,1.13.27a23.63,23.63,0,0,1,3.47-.05c1.15.17,2.21.25,2.21,1.55a15.89,15.89,0,0,0,.47,5.08,12.86,12.86,0,0,1,.82,2.74,4.77,4.77,0,0,1-2.9,4.42,11.3,11.3,0,0,1-6.63.6c-1.11-.16-2.67-.39-3.32-1.44a4.19,4.19,0,0,1-.17-2.71A14.93,14.93,0,0,0,291.05,290.11Z"/><g class="cls-6"><g class="cls-6"><path class="cls-3" d="M293.55,268l4.81,2.79A1.34,1.34,0,0,0,297,271l-4.81-2.8A1.31,1.31,0,0,1,293.55,268Z"/><g class="cls-13"><g class="cls-6"><path class="cls-14" d="M297,271l-4.81-2.8a1.31,1.31,0,0,1,1.33-.12l4.81,2.79A1.34,1.34,0,0,0,297,271Z"/></g></g></g></g><path class="cls-10" d="M286.1,271.34a5.92,5.92,0,0,0-1.41,2.92c-.38,2.5.63,5.06.09,7.54s.5,7.85,5.23,9.25c2.4.71,7.12-.12,8.64-.85,2-1,3.39-2.95,4.6-4.87C313.13,269.63,292.8,263.18,286.1,271.34Z"/><path class="cls-3" d="M307.75,278.3c-.06.46-.13.93-.21,1.39a9.71,9.71,0,0,1-.26,1c-.1.29-.21.58-.33.85a17.64,17.64,0,0,1-1.81,3,9.35,9.35,0,0,1-3.34,3.36,8.92,8.92,0,0,1-2,.61c-1.87.42-4.63.5-6.06-1.05a4.59,4.59,0,0,1-1-2.57,16.3,16.3,0,0,0-.39-2.57c-.05-.23-.11-.45-.18-.67a5.25,5.25,0,0,0-.42-1,2.33,2.33,0,0,0-1.32-1.15c-1-.3-2.15.25-3-.31a2.68,2.68,0,0,1-.86-1.29c-.2-.49-.37-1-.57-1.55a7.26,7.26,0,0,0-1-1.94,7,7,0,0,1-.68-.87,3.15,3.15,0,0,1-.56-1.36c-.09-2.3,1.8-4.57,3.39-6a10.51,10.51,0,0,1,2.86-1.95,11.2,11.2,0,0,1,3-.75c3-.43,6.19-.36,8.83,1.11a3.92,3.92,0,0,1,1.7,1.62,2.64,2.64,0,0,0,.25.47,1.71,1.71,0,0,0,.6.38,6.14,6.14,0,0,1,1.79,1.25C308.56,270.74,308.21,275,307.75,278.3Z"/><path class="cls-10" d="M291.51,278.4c1.89-.16,2.41,2.19,1.14,4a9.09,9.09,0,0,1-1.52,1.45c-3.36,3-4.26-.16-3.2-1.16C290.4,280.38,289.12,278.61,291.51,278.4Z"/><path class="cls-15" d="M291,282c.22-.2,2.36-1.51.87-2.36a.65.65,0,0,0-.91.57c0,.22,0,.45,0,.67a1,1,0,0,1-.14.38c-.18.31-.84.62-.7,1.08S290.87,282.11,291,282Z"/></g><path class="cls-10" d="M280.89,241.41a.75.75,0,0,1-.35-.63c0-.35.52-.51.81-.55a2.79,2.79,0,0,1,1.45.25c.6.24,1.15.6,1.77.79a.88.88,0,0,0,.53,0,.39.39,0,0,0,.32-.37c0-.33-.55-.61-.78-.78a10.05,10.05,0,0,0-1.17-.74,7.11,7.11,0,0,0-2.09-.82c-.78-.1-1.62.06-2.41,0a1.19,1.19,0,0,1-.46-.1,1.29,1.29,0,0,1-.51-.55,6.38,6.38,0,0,1-.37-.74.22.22,0,0,1,0-.14.2.2,0,0,1,.11-.13,14,14,0,0,1,3-1.28c.71-.26,1.43-.51,2.15-.75a1.1,1.1,0,0,1,.53-.09,1.39,1.39,0,0,1,.52.21,13,13,0,0,0,1.59.66,17.52,17.52,0,0,1,4.9,3.4c1,.89,2,1.78,3,2.71.77.74.3,2.2-.39,2.83a3,3,0,0,1-.51.36,3,3,0,0,1-2.25.17c-.38-.1-2.12-.74-2.65-.89a24.48,24.48,0,0,1-6.33-2.6C281.14,241.59,281,241.51,280.89,241.41Z"/><path class="cls-16" d="M322.71,246.05c5.69-3.71,7.89-9.68,5.82-11.66-3.55-3.38-6.64-1.12-14.72,5.94l-.54.47c-2,1.7-4,3.41-5.79,5.28a31.3,31.3,0,0,0-2.87,3.33c-.2.28-.4.55-.58.84a4,4,0,0,0-.33,1,9.38,9.38,0,0,0-.52,2.61,3.83,3.83,0,0,0,1.16,3,3.78,3.78,0,0,0,3.6.5c1.35-.45,6.19-1.39,9.76-4.85C320,250.22,315.36,250.83,322.71,246.05Z"/><path class="cls-16" d="M291.4,241.84c.35-.5.67-.84,1.27-.7a6.92,6.92,0,0,1,1.73.68,31.32,31.32,0,0,1,3.21,2.13c1.38,1,2.8,1.77,4.25,2.63,1,.62,2.07,1.28,3.05,2,1.83,1.33,5.87,4.39,3.95,7.06a4.39,4.39,0,0,1-3.58,1.73c-1-.13-2.11-1.27-2.85-1.81-1.73-1.25-3.42-2.56-5.11-3.87-2.06-1.59-4-3.42-6.11-5-.85-.65-1.43-.72-1.15-2a9.32,9.32,0,0,1,1.25-2.72Z"/><path class="cls-17" d="M348,237.91c0-1.14.08-2.28.12-3.42a34.31,34.31,0,0,0-.36-7.09,21.4,21.4,0,0,0-3.08-7.87,5.12,5.12,0,0,0-.79-1c-.8.11-1.8-.15-2.52.23-1.05.56-1.8,2.41-2.26,3.44a14.9,14.9,0,0,0-1,9,21.92,21.92,0,0,0,1.15,3.12,18.7,18.7,0,0,0,1.68,3.77,6.56,6.56,0,0,0,4.06,3,2.59,2.59,0,0,0,2.42-.58A3.51,3.51,0,0,0,348,238Z"/><path class="cls-15" d="M347.42,237.36a78.15,78.15,0,0,1-9.85-5.23c-.37-.25-2.09.87-2.53.78a16.28,16.28,0,0,0-9.86.8l-.11,0V254h19.4Z"/><path class="cls-15" d="M340.11,235.82s-12.07,6.07-11.49-.64c.81-9.34,1.4-10.38,5.59-11.59,1.15-.33,1.6-1.3,2.79-1.25,4.33.18,2.51,2.44,2.25,4.08C338.47,231.28,340.19,233.24,340.11,235.82Z"/><path class="cls-18" d="M329.21,232.2H329C329.52,232.06,329.8,232.18,329.21,232.2Z"/><path class="cls-2" d="M353.63,244.33a8.93,8.93,0,0,1,0,1.16,18.44,18.44,0,0,1-.58,3.29,11.71,11.71,0,0,1-1.6,3.55c-.73,1.18-1.33,2.38-2.06,3.56a30.53,30.53,0,0,0-1.7,3.67,36.11,36.11,0,0,0-3,8.86,33.63,33.63,0,0,0-.28,7.5,28.88,28.88,0,0,1,.21,3.58,7.87,7.87,0,0,1,0,1.19c-.09.43-.3.58-.7.89a16.48,16.48,0,0,1-7.38,3.12,26.57,26.57,0,0,1-8.68-.19c-.82-.14-1.59-.29-2.33-.46a26.2,26.2,0,0,1-6.14-2.07c-.6-.46-.34-.32.17-4.69,2.1-17.92-5.82-18.25-2.73-27.63.52-1.6,1.6-3.11,2.26-4.72,2.46-5.87.91-12.41,9.91-12.74-.56.17-5.76,8.94.5,11.51,4,1.66,12-2.76,13.91-8.25,2.67,1.24,5.08,2,7.3,3.67A6.54,6.54,0,0,1,353.63,244.33Z"/><path class="cls-19" d="M337.08,363.91a8.39,8.39,0,0,0-.71,1.59c-.7,2-1.4,4-2.11,6a25.78,25.78,0,0,0-1.05,5.48c-.17,1.45-.7,3.24.31,4.45a4,4,0,0,0,4.32.94,6.49,6.49,0,0,0,3.32-3.19,16.28,16.28,0,0,0,1.33-5.28c.31-2,.61-4,.91-6.05a6.48,6.48,0,0,0,.06-2.48c-.53-2.18-4.34-3.64-6-1.93A3.14,3.14,0,0,0,337.08,363.91Z"/><path class="cls-19" d="M320.78,367.94a5,5,0,0,1,1.06-2.89c1-1.37,2.25-2.46,3.3-3.74a13.52,13.52,0,0,0,1.22-2,16.17,16.17,0,0,1,1.77-2l.27-.3a7.32,7.32,0,0,1,3.52-2.14c1.12-.28,2.92-.36,3.71.61,1.14,1.4.93,2.93.49,4.52s-1.89,2.14-3,3.27c-.58.58-1,1.24-1.58,1.82-.77.75-1.47,1.57-2.22,2.34a11.12,11.12,0,0,1-3.5,2.64c-1.94.83-4.9.65-5-2A.22.22,0,0,1,320.78,367.94Z"/><path class="cls-15" d="M316.24,326.11c1,2.43,8.41,20.58,10.06,26.52.74,2.63,1.5,6.08-.37,8.42a7.21,7.21,0,0,0-1.13,1.63,1.71,1.71,0,0,0,.24,1.86,1.64,1.64,0,0,0,1.68.26,4.9,4.9,0,0,0,1.48-1,35.6,35.6,0,0,0,4-3.87,14.69,14.69,0,0,0,1.75-2.61c.49-1,.93-1.74.43-2.72a18.69,18.69,0,0,1-1.67-6.86,38.14,38.14,0,0,1-.07-4.41c0-1.35.24-2.73.16-4.08a39.66,39.66,0,0,0-1-8.2,13.47,13.47,0,0,0-2.42-4.9c-1.19-1.46-2.82-2.36-4.14-3.68a3.56,3.56,0,0,0-3-1.39Z"/><path class="cls-10" d="M348.44,295.15a63.32,63.32,0,0,0-.62-8.81c-.31-2.2-2.06-8.21-2.06-8.21s-9,3.85-11.8,4.13a21.81,21.81,0,0,1-7.53-.09c-1.23-.23-1.32-.17-1.31,1.06a30.78,30.78,0,0,0,1,5.32c1.28,6.53,3.24,13.05,4.26,19.61.83,5.34.59,11,1.33,16.46a21.09,21.09,0,0,0,2.59,6.6c1.22,2.31,2.44,3.6,4.68,3.35a6.13,6.13,0,0,0,3.34-2.14,10.39,10.39,0,0,0,.65-2.3q.9-2.82,1.51-5.72c.09-.4.17-.81.25-1.19,0-.05,0-.09,0-.14,1-5.14,1.59-10.4,2.36-15.58A75.86,75.86,0,0,0,348.44,295.15Z"/><path class="cls-10" d="M331,321.05c.48,6.37,3.06,11,4.13,17.28a130.21,130.21,0,0,1,1.37,21,53.63,53.63,0,0,1-.27,9.14c-.31,1.83-1.94,4.89-.47,6.54a3.13,3.13,0,0,0,2.1,1,3,3,0,0,0,2-.46c1-.68,1.17-2.43,1.52-3.51,1.24-3.76,1.92-7.63,3-11.44,1.15-4.2,2.92-8.24,3.57-12.57a45.91,45.91,0,0,0-3.51-23.84c-.49-1.09-.63.21-1.81,0Z"/><path class="cls-3" d="M314.2,321c-.46,2.29-.63,4.39,1.08,6.73,2,2.71,5.35,4.15,8.68,4.53a36.82,36.82,0,0,0,10-.68l11.29-1.82a2.81,2.81,0,0,0,2.89-3.74,107.27,107.27,0,0,1-.45-13.51c.27-5.15,1.13-10.39,1.13-15.54.24-4.87,0-9.91-1.76-14.5-.39-1-.95-4.09-2-4.54-1.67-.71-4.88,1.5-6.44,2a82.41,82.41,0,0,1-11.48,2.24c-3.41.17-4.06-2.67-8.34-2.64-1.19,0-1.91,8.47-2.09,9.61-.45,2.9-.82,5.82-1,8.75-.18,2.71.21,5.22.16,7.89a78.5,78.5,0,0,1-1,12.25C314.63,319.11,314.39,320.08,314.2,321Z"/><path class="cls-9" d="M318.8,279.59c.45-1.52.87-2.9.87-2.9s5.49,4.86,12.86,4.32c7.07-.52,12.13-4.6,11.93-5,.45.68.89,1.38,1.3,2.09C338.12,284.76,326.87,284.58,318.8,279.59Z"/><path class="cls-10" d="M335.63,230a10.93,10.93,0,0,0,1-.71l.42-.38a22.49,22.49,0,0,0,2.83-4,11.75,11.75,0,0,0,1.66-4.73,10.83,10.83,0,0,0-2.68-9.09,10.62,10.62,0,0,0-10.32-2.83,14.31,14.31,0,0,0-2.81,1.15,7.48,7.48,0,0,0-2.16,1.48,7.28,7.28,0,0,0-1,1.42,13.4,13.4,0,0,0-1,2.79,5.9,5.9,0,0,0-.1,1.68,15,15,0,0,0,.26,2.92,14.39,14.39,0,0,1,.29,2.43,6.66,6.66,0,0,1-.65,2.29,3.21,3.21,0,0,0-.29,1.68c.15.51.71.93,1,1.4a2.83,2.83,0,0,1,.39,1.46,2.24,2.24,0,0,0,.29.95,2.54,2.54,0,0,1,.09.77,4.88,4.88,0,0,0,.43.93,9.16,9.16,0,0,0,.43,1c1.08,1.94,2.64,2.07,4.58,1.31a27.55,27.55,0,0,0,4.3-2.18C333.55,231.17,334.63,230.67,335.63,230Z"/><path class="cls-20" d="M345,216.88a10.56,10.56,0,0,0-1.59-5,7.9,7.9,0,0,0-.78-1.11c-.28-.31-.85-.62-1-1,0,0-1.57-3.89-8.71-3.88a14.69,14.69,0,0,0-7.61,2.39,7.52,7.52,0,0,0-3.38,3.66,13.2,13.2,0,0,0-1.09,5.58,1.2,1.2,0,0,0,.24.81c.3.32.81.24,1.23.13a16.42,16.42,0,0,0,4.3-1.73c.64-.37,2.36-1.16,3.12-.81s.16,1.9.39,2.63a4.41,4.41,0,0,0,1.68,2.28A22.45,22.45,0,0,0,334.1,222a3.18,3.18,0,0,1,1.68,1.85c.21.89-.08,2.07.7,2.53.94.56,3.51-1.59,3.37-1.36-.62,1.05-.53.87-.76,2.72a12.27,12.27,0,0,0,5.79-8.37A10.78,10.78,0,0,0,345,216.88Z"/><path class="cls-10" d="M338.91,221.48c1.88-.12,2.35,2.21,1,4a9.36,9.36,0,0,1-1.54,1.4c-3.37,2.85-4.2-.25-3.13-1.22C337.78,223.41,336.55,221.63,338.91,221.48Z"/><path class="cls-15" d="M337.7,225.74c.21-.2,2.36-1.45.9-2.32a.64.64,0,0,0-.91.54c0,.22,0,.45,0,.67a1,1,0,0,1-.15.37c-.19.31-.84.6-.71,1.06S337.57,225.85,337.7,225.74Z"/><path class="cls-10" d="M348.46,270.81a2.37,2.37,0,0,1-.66.49,1.75,1.75,0,0,1-1.27.1,3.17,3.17,0,0,1-1.27-1.06,26.87,26.87,0,0,0-1.85-2,.84.84,0,0,0-.6-.32.56.56,0,0,0-.44.41c0,.14.07.81,0,.83s-.59-.21-.76-.26-.6-.19-.91-.27a15.66,15.66,0,0,0-1.91-.36,14.45,14.45,0,0,0-3.83.06.73.73,0,0,0-.32.09.3.3,0,0,0-.15.29c0,.12.13.2.24.26a10.41,10.41,0,0,0,2.75.77c.39.1.74.3,1.13.41a9.43,9.43,0,0,1,1.48.57,22.18,22.18,0,0,0-4.74-.57c-.32,0-1.09,0-1.29.33s.43.7.71.8l2.6.94a6.71,6.71,0,0,0-3-.33c-.5.05-.85.06-.72.65a1,1,0,0,0,.79.78c.6.11,1.2.19,1.8.32a12.82,12.82,0,0,1,2.44.77,7.86,7.86,0,0,0-2,.3,2.69,2.69,0,0,0-1.44,1c-.2.32-.24,1,.26,1a14.2,14.2,0,0,0,1.6,0,18,18,0,0,1,3.36,0c1.63.24,3.09,1.16,4.72,1.38a7.56,7.56,0,0,0,4.24-.86,39.47,39.47,0,0,0,3.27-2.38,9.56,9.56,0,0,0,2-1.27c.64-.65,1.25-1.33,1.84-2a2,2,0,0,0,.6-1.15,1.82,1.82,0,0,0-.93-1.48,5.86,5.86,0,0,0-2.22-1,3.66,3.66,0,0,0-2.29,0,13.5,13.5,0,0,0-2.56,2C348.89,270.33,348.69,270.58,348.46,270.81Z"/><path class="cls-2" d="M351.14,239.25c-.18-.14-.36-.27-.54-.42a2.23,2.23,0,0,0-2.05-.6,2.29,2.29,0,0,0-1.14,1.26,12.6,12.6,0,0,0-.9,4.44,19.22,19.22,0,0,0,.1,4.61c.23,1.37.77,3.19,1.92,4.06s2.18,1.76,3.25,2.66c2.18,1.8,4.39,3.57,6.63,5.28a16.72,16.72,0,0,0,3.43,2.44c3.49,1.41,6.88-.42,7.49-3a4.61,4.61,0,0,0-.59-2.94,15.2,15.2,0,0,0-2.61-3.26q-1.61-1.82-3.26-3.59a100.86,100.86,0,0,0-9.18-9.08C352.87,240.43,352,239.88,351.14,239.25Z"/><path class="cls-2" d="M351.78,275.43c1.56.44,2.64-.74,3.67-1.54,2.4-1.89,11.39-8.05,13.74-13.45.56-1.3-2.67-2.53-4.18-3.85-1-.9-2.79-.42-3.94-.06-1.42.46-12.53,13.33-12.73,14.05C347.9,272.12,350.57,275.09,351.78,275.43Z"/><g class="cls-21"><path class="cls-1" d="M304.24,153.74c0,7.3-5.11,16.18-11.46,19.85L127.32,269.11c-6.35,3.67-11.51.74-11.53-6.56l-.35-122.43,0-11.93c0-7.3,5.11-16.19,11.46-19.85L292.33,12.81c6.34-3.66,11.51-.73,11.53,6.57l0,11.94Z"/></g><g class="cls-21"><path class="cls-1" d="M313.14,162.25c0,7.3-5.11,16.18-11.46,19.85L136.22,277.62c-6.35,3.67-11.52.73-11.54-6.57l-.35-122.42,0-11.94c0-7.3,5.11-16.18,11.46-19.84L301.22,21.31c6.35-3.66,11.52-.72,11.53,6.58l0,11.94Z"/></g><g class="cls-6"><g class="cls-6"><path class="cls-2" d="M317.84,27.13l2.89,1.68c-2.06-1.2-4.91-1-8.06.79l-2.89-1.68C312.93,26.1,315.78,25.93,317.84,27.13Z"/><g class="cls-22"><path class="cls-23" d="M312.67,29.6l-2.89-1.68c3.15-1.82,6-2,8.06-.79l2.89,1.68C318.67,27.61,315.82,27.78,312.67,29.6Z"/></g></g><path class="cls-1" d="M142,283l-2.89-1.68c-2-1.18-3.29-3.69-3.3-7.26l2.89,1.68C138.7,279.29,140,281.8,142,283Z"/><g class="cls-24"><g class="cls-6"><path class="cls-1" d="M142,283l-2.89-1.68c-2-1.18-3.29-3.69-3.3-7.26l2.89,1.68C138.7,279.29,140,281.8,142,283Z"/></g></g><polygon class="cls-25" points="138.31 143.3 135.42 141.63 135.46 153.4 138.35 155.06 138.31 143.3"/><polygon class="cls-1" points="135.46 153.4 135.8 274.04 138.69 275.72 138.35 155.06 135.46 153.4"/><polygon class="cls-23" points="149.61 123.74 146.72 122.06 309.78 27.92 312.67 29.6 149.61 123.74"/><g class="cls-6"><path class="cls-2" d="M138.31,143.3l-2.89-1.68c0-7.19,5-15.94,11.3-19.56l2.89,1.68C143.35,127.35,138.29,136.11,138.31,143.3Z"/><g class="cls-26"><g class="cls-6"><path class="cls-25" d="M138.31,143.3l-2.89-1.68c0-7.19,5-15.94,11.3-19.56l2.89,1.68C143.35,127.35,138.29,136.11,138.31,143.3Z"/></g></g></g><path class="cls-27" d="M324.41,168.49c0,7.19-5,15.94-11.29,19.56L150.06,282.19c-6.26,3.61-11.35.72-11.37-6.47l-.34-120.66,0-11.76c0-7.19,5-16,11.3-19.56L312.67,29.6C318.92,26,324,28.88,324,36.08l0,11.76Z"/><path class="cls-28" d="M324.06,47.84,138.35,155.06l0-11.76c0-7.19,5-16,11.3-19.56L312.67,29.6C318.92,26,324,28.88,324,36.08Z"/></g><path class="cls-3" d="M259.51,122.34c0-16-11.12-22.53-24.84-14.61S209.82,135,209.82,151s11.13,22.53,24.85,14.61S259.51,138.33,259.51,122.34Z"/><path class="cls-29" d="M242.37,116.25c0,5-3.45,11-7.7,13.42s-7.7.43-7.7-4.53,3.44-11,7.7-13.42S242.37,111.29,242.37,116.25Z"/><path class="cls-29" d="M246.72,150.72V135.91c0-6.48-4.55-9.15-10.1-5.94l-3.91,2.25c-5.55,3.21-10.1,11.13-10.1,17.61v14.81Z"/><path class="cls-1" d="M236.3,130.16,233,132Z"/><polygon class="cls-29" points="273.41 162.71 195.93 207.44 195.93 194.4 273.41 149.67 273.41 162.71"/><polygon class="cls-3" points="249.48 204.77 220.61 221.44 220.61 229.81 249.48 213.13 249.48 204.77"/><polygon class="cls-29" points="273.41 182.91 195.93 227.65 195.93 214.61 273.41 169.87 273.41 182.91"/><path class="cls-30" d="M201.75,218l-1.41.33.21-.93,1.41-.21,0-1.83.71-.41,0,1.9,1.38-1.39.22.69-1.44,1.32.93.93-.58.84-.87-1.05-.84,2-.58-.16Z"/><path class="cls-30" d="M205.86,215.66l-1.41.33.22-.94,1.41-.21L206,213l.72-.41-.05,1.91,1.39-1.39.21.69-1.43,1.32.92.92-.58.84-.86-1-.84,2-.59-.15Z"/><path class="cls-30" d="M210,213.28l-1.4.33.21-.93,1.41-.21,0-1.83.71-.41-.05,1.9,1.39-1.39.21.69L211,212.75l.93.93-.58.84-.87-1.05-.84,2-.58-.15Z"/><path class="cls-30" d="M214.09,210.91l-1.41.33.21-.94,1.41-.21,0-1.83.71-.41,0,1.91,1.38-1.4.22.7-1.43,1.31.92.93-.58.84-.87-1-.84,2-.58-.15Z"/><path class="cls-30" d="M218.2,208.53l-1.41.33.22-.93,1.41-.21,0-1.83.72-.41-.05,1.9,1.39-1.39.21.69L219.21,208l.92.93-.57.84-.87-1.05-.84,2-.59-.15Z"/><path class="cls-2" d="M306.19,46.18c0,1.54,1.08,2.17,2.42,1.4A5.34,5.34,0,0,0,311,43.4c0-1.54-1.08-2.17-2.41-1.4A5.32,5.32,0,0,0,306.19,46.18Z"/><path class="cls-2" d="M298.59,50.58c0,1.54,1.08,2.16,2.41,1.39a5.35,5.35,0,0,0,2.42-4.18c0-1.54-1.09-2.17-2.42-1.4A5.36,5.36,0,0,0,298.59,50.58Z"/><path class="cls-2" d="M291,55c0,1.54,1.08,2.16,2.41,1.39a5.32,5.32,0,0,0,2.42-4.18c0-1.54-1.08-2.17-2.42-1.39A5.34,5.34,0,0,0,291,55Z"/><g class="cls-6"><g class="cls-6"><path class="cls-4" d="M87.46,428.8l28.84,16.72c-3.48-2-5.64-6.3-5.66-12.38L81.79,416.42C81.81,422.5,84,426.78,87.46,428.8Z"/><g class="cls-31"><g class="cls-6"><path class="cls-4" d="M110.64,433.14,81.79,416.42c0,6.08,2.19,10.36,5.67,12.38l28.84,16.72C112.82,443.5,110.66,439.22,110.64,433.14Z"/></g></g></g><g class="cls-6"><path class="cls-5" d="M209.29,284.77l-28.84-16.72c-3.53-2.05-8.4-1.77-13.76,1.32l28.85,16.72C200.89,283,205.77,282.72,209.29,284.77Z"/><g class="cls-32"><g class="cls-6"><path class="cls-5" d="M209.29,284.77l-28.84-16.72c-3.47-2-8.25-1.78-13.5,1.18L195.79,286C201.05,283,205.82,282.76,209.29,284.77Z"/><path class="cls-5" d="M195.79,286,167,269.23l-.26.14,28.85,16.72Z"/></g></g></g><polygon class="cls-4" points="110.42 357.52 81.58 340.8 81.79 416.42 110.64 433.14 110.42 357.52"/><polygon class="cls-5" points="195.54 286.09 166.69 269.37 100.88 307.37 129.73 324.09 195.54 286.09"/><g class="cls-6"><path class="cls-5" d="M129.73,324.09l-28.85-16.72c-10.65,6.15-19.33,21.19-19.3,33.43l28.84,16.72C110.39,345.28,119.08,330.23,129.73,324.09Z"/><g class="cls-33"><g class="cls-6"><path class="cls-5" d="M129.73,324.09l-28.85-16.72a32.08,32.08,0,0,0-6.53,5.08l28.85,16.72A32.08,32.08,0,0,1,129.73,324.09Z"/><path class="cls-5" d="M123.2,329.17,94.35,312.45c-7.45,7.41-12.8,18.75-12.77,28.35l28.84,16.72C110.4,347.91,115.74,336.57,123.2,329.17Z"/></g></g></g><path class="cls-34" d="M129.73,324.09c-10.65,6.14-19.34,21.19-19.31,33.43l.22,75.62c0,12.24,8.78,17.21,19.43,11.06l65.81-38c10.65-6.15,19.32-21.19,19.29-33.42L215,297.17c0-12.24-8.78-17.23-19.42-11.08Z"/></g><path class="cls-35" d="M175.46,387.84c0-5.07-3.53-7.14-7.93-4.62a17.57,17.57,0,0,0-8,13.73c0,3.34,1.53,5.37,3.84,5.65L163.32,417l8.19-4.69.05-14.43A17.3,17.3,0,0,0,175.46,387.84Z"/><path class="cls-12" d="M195.54,238.21l-.16,40.19c0,1.4-.92,2.79-2.75,3.85a14.49,14.49,0,0,1-13.24-.05c-1.83-1.08-2.74-2.49-2.73-3.89l.15-40.17c0-7-1.94-12.18-5.4-14.19s-8.93-1.18-15,2.31l-10.34,5.91c-16.2,9.28-29.94,32.88-30,51.55l-.15,40.18c0,1.4-.93,2.79-2.76,3.85a14.22,14.22,0,0,1-8.65,1.44,12.29,12.29,0,0,1-4.59-1.49,7.19,7.19,0,0,1-1.27-.93,4,4,0,0,1-1.45-2.95l.14-40.17c0-12.22,4.14-25.94,11.54-38.63s17.3-23,27.9-29.09L147.09,210a42.09,42.09,0,0,1,17.29-5.74A27,27,0,0,1,192,220.34,42.07,42.07,0,0,1,195.54,238.21Z"/><path class="cls-1" d="M176.58,226.15a8.41,8.41,0,0,0-3.69-1.05c2.53,2.5,3.94,7.11,3.92,13.05l-.15,40.16c0,1.41.9,2.81,2.73,3.89a10.83,10.83,0,0,0,2.43,1l.16-42.88C182,233.34,180,228.17,176.58,226.15Z"/><path class="cls-2" d="M182.09,210.14a29.29,29.29,0,0,0-10.38-.95,41.94,41.94,0,0,0-17.3,5.74l-10.34,5.92c-10.6,6.07-20.51,16.4-27.9,29.1s-11.49,26.41-11.54,38.63l-.15,40.61a12.29,12.29,0,0,1-4.59-1.49,7.19,7.19,0,0,1-1.27-.93l.15-40.64c0-12.22,4.14-25.94,11.53-38.63s17.31-23,27.91-29.09l10.34-5.92a41.92,41.92,0,0,1,17.29-5.75A27.92,27.92,0,0,1,182.09,210.14Z"/></svg>